# xmcd
#
# Track frame offsets:
#	150
#	18872
#	36964
#	53844
#	68954
#	89090
#	113663
#	128498
#	141181
#	161099
#	178606
#	200020
#
# Disc length: 2889 seconds
#
# Revision: 1
# Processed by: cddbd v1.5.2PL0 Copyright (c) Steve Scherf et al.
# Submitted via: audiograbber 1.83.01
#
DISCID=a70b470c
DTITLE=Kathy Kennedy, Shelley Lynne, Angel Calnek - Women In Blues Manitoba
DYEAR=2009
DGENRE=Blues
TTITLE0=Start It Up
TTITLE1=I Just Want To Make Love To You
TTITLE2=Slipped Tripped Fell In Love
TTITLE3=Ka-Ching
TTITLE4=Casino
TTITLE5=VooDoo Woman
TTITLE6=Hip Shakin Mama
TTITLE7=Train
TTITLE8=Mama He Treats Your Daoughter Mean
TTITLE9=Instant Breakfast
TTITLE10=About To Make Me Leave Home
TTITLE11=Cut You Loose
EXTD=Recorded live at the Windsor Hotel, Winnipeg Manitoba on October 18, 2008 
EXTD=and published in February of 2009.\nA project of KatBlues Productions.
EXTT0=Written by Robben Ford\nPerformed by Shelley Lynne and the Majestics\n
EXTT1=Written by Willie Dixon\nPerformed by Angel Calnek and Hillbilly Burlesqu
EXTT1=e\n
EXTT2=Written by Peebles, Jackson and George\nPerformed by Kat Kennedy's Blues Ea
EXTT2=rth\n
EXTT3=Written by Hahn and Hudson\nPerformed by Shelley Lynne and the Majestics\n
EXTT4=Written by Darrell Sandmoen\nPerformed by Angel Calnek and Hillbilly Burl
EXTT4=esque\n
EXTT5=Written by Koko Taylor\nPerformed by Kat Kennedy's Blues Earth
EXTT6=Written by Irma Thomas\nPerformed by Shelley Lynne and the Majestics\n
EXTT7=Written by Kristi Johnson\nPerformed by Angel Calnek and Hillbilly Burles
EXTT7=que\n
EXTT8=Written by Wallace, Lance and Singleton\nPerformed by Kat Kennedy's Blues E
EXTT8=arth\n
EXTT9=Written by Trudy Lynn\nPerformed by Shelley Lynne and the Majestics
EXTT10=Written by Earl Randall\nPerformed by Angel Calnek and Hillbilly Burlesq
EXTT10=ue
EXTT11=Written by Mel London\nPerformed by Kat Kennedy's Blues Earth
PLAYORDER=
